<svg id="uc" xmlns="http://www.w3.org/2000/svg" viewBox="0 0 800 800"><defs><style>.cls-1{fill:#012456;}</style></defs><title>UnitConversionLogo</title><path class="cls-1" d="M75.51,62.52h21V195.75L154,140.19h29.94l-61,57.45,67.16,68.77h-31L96.55,200.07v66.35h-21Z"/><path class="cls-1" d="M723.31,523.88c0,12.63,1.17,23.49,1.17,32.59H702.76c0-7.34-.59-15-.59-22.61h-.59c-6.17,13.51-23.2,26.13-45.8,26.13-12.33,0-20.26-2.05-29.36-7.34v70.76h-22.9V419.05h22.9v82.51c0,22.9,10,37.29,31.42,37.29,29.66,0,42.57-21.44,42.57-52.85V419.05h22.9Z"/><path class="cls-1" d="M75.78,272.76H724.22v46.69H75.78Z"/><path class="cls-1" d="M681.5,292.28h-1.07L390.28,164V120.56l333.95,152.6v19.13H681.5Z"/><path class="cls-1" d="M724.22,412.07H75.78V365.38H724.22Z"/><path class="cls-1" d="M118.51,392.55h1.07l290.15,128.3v43.43L75.78,411.67V392.55h42.72Z"/><path class="cls-1" d="M124.46,710.86c0,14.23-6.65,26.62-24.68,26.62S75.11,725.1,75.11,710.86V670.38h7.76v39.37c0,10.54,3.88,20.52,16.91,20.52s16.91-10,16.91-20.52V670.38h7.76Z"/><path class="cls-1" d="M139.15,702.82c0-4-.37-7.39-.37-10.26h6.84c0,2.31.18,4.71.18,7.12H146c1.94-4.25,7.3-8.23,14.42-8.23,11.37,0,16.45,7.21,16.45,17.65v26.71h-7.21v-26c0-7.21-3.14-11.74-9.89-11.74-9.33,0-13.4,6.75-13.4,16.64v21.07h-7.21Z"/><path class="cls-1" d="M194.79,670.38a5.27,5.27,0,0,1,5.27,5.27,5.27,5.27,0,1,1-10.54,0A5.27,5.27,0,0,1,194.79,670.38Zm-3.6,22.18h7.21v43.26h-7.21Z"/><path class="cls-1" d="M236.38,698.66H223.62v21.63c0,5.55.09,10,6.47,10a14,14,0,0,0,6.38-1.48l.28,6.56a21.94,21.94,0,0,1-8.41,1.57c-10.26,0-11.92-5.55-11.92-14.51V698.66H207v-6.1h9.43V680.27h7.21v12.29h12.75Z"/><path class="cls-1" d="M318.08,683.88a20.13,20.13,0,0,0-16.36-7.95c-14.6,0-25,12.85-25,27.17,0,15.16,10.26,27.17,25,27.17a23.05,23.05,0,0,0,18.95-9.15l5.82,4.9c-5.82,7.86-14.33,11.46-24.77,11.46-18.76,0-33.27-14.51-33.27-34.38,0-19.22,13.86-34.38,33.27-34.38,8.87,0,17.56,3,23.11,10.26Z"/><path class="cls-1" d="M356.61,691.45c13.31,0,23.11,9.24,23.11,22.74s-9.8,22.74-23.11,22.74-23.11-9.24-23.11-22.74S343.3,691.45,356.61,691.45Zm0,38.82c9.34,0,15.34-7,15.34-16.08s-6-16.08-15.34-16.08-15.34,7-15.34,16.08S347.28,730.27,356.61,730.27Z"/><path class="cls-1" d="M390.9,702.82c0-4-.37-7.39-.37-10.26h6.84c0,2.31.18,4.71.18,7.12h.18c1.94-4.25,7.3-8.23,14.42-8.23,11.37,0,16.45,7.21,16.45,17.65v26.71H421.4v-26c0-7.21-3.14-11.74-9.89-11.74-9.33,0-13.4,6.75-13.4,16.64v21.07H390.9Z"/><path class="cls-1" d="M462,735.82H454l-17.65-43.26h8.41l13.49,33.92h.19l12.85-33.92h7.76Z"/><path class="cls-1" d="M525.46,728c-5.08,6.56-11.18,9-19.22,9-13.59,0-21.9-10.17-21.9-22.74,0-13.4,9.43-22.74,22.18-22.74,12.2,0,20.52,8.32,20.52,22.64v2.31H492.09c.55,7.49,6.29,13.86,14.14,13.86,6.19,0,10.35-2.22,13.77-6.56Zm-6.19-17.65c-.28-7.3-5.08-12.2-13-12.2S493,703,492.09,710.31Z"/><path class="cls-1" d="M538.21,702.82c0-4-.37-7.39-.37-10.26h6.84c0,2.31.18,4.71.18,7.12H545c1.94-4.25,7.3-8.23,14.42-8.23a8.57,8.57,0,0,1,3,.46l-.46,7.3a13.59,13.59,0,0,0-3.88-.55c-8.78,0-12.66,6.19-12.66,16.08v21.07h-7.21Z"/><path class="cls-1" d="M571.66,724.45c2.87,3.51,6,5.82,11.09,5.82,4.53,0,9.52-1.94,9.52-6.65s-4.62-5.82-9.24-6.84c-8.23-1.85-15.25-3.6-15.25-12.57,0-8.41,8.13-12.75,16.17-12.75,6.1,0,11.74,2.31,14.69,7.86l-6,4a10.3,10.3,0,0,0-9.15-5.18c-4,0-8.5,1.94-8.5,6,0,3.61,5.18,5.18,10.91,6.29,7.67,1.48,14.14,4.25,14.14,12.94,0,9.8-8.69,13.59-17.28,13.59-7.3,0-12.57-1.94-16.82-8Z"/><path class="cls-1" d="M614.36,670.38a5.27,5.27,0,0,1,5.27,5.27,5.27,5.27,0,1,1-10.54,0A5.26,5.26,0,0,1,614.36,670.38Zm-3.61,22.18H618v43.26h-7.21Z"/><path class="cls-1" d="M652.9,691.45c13.31,0,23.11,9.24,23.11,22.74s-9.8,22.74-23.11,22.74-23.11-9.24-23.11-22.74S639.59,691.45,652.9,691.45Zm0,38.82c9.33,0,15.34-7,15.34-16.08s-6-16.08-15.34-16.08-15.34,7-15.34,16.08S643.56,730.27,652.9,730.27Z"/><path class="cls-1" d="M687.18,702.82c0-4-.37-7.39-.37-10.26h6.84c0,2.31.18,4.71.18,7.12H694c1.94-4.25,7.3-8.23,14.42-8.23,11.37,0,16.45,7.21,16.45,17.65v26.71h-7.21v-26c0-7.21-3.14-11.74-9.89-11.74-9.33,0-13.4,6.75-13.4,16.64v21.07h-7.21Z"/></svg>